<?xml version="1.0" encoding="UTF-8"?><svg id="Layer_2" xmlns="http://www.w3.org/2000/svg" xmlns:xlink="http://www.w3.org/1999/xlink" viewBox="0 0 185.01 147.04"><defs><style>.cls-1,.cls-2{fill:none;stroke:#544ce1;stroke-miterlimit:10;}.cls-2{stroke-width:.9px;}.cls-3{fill:#544ce1;}.cls-4{clip-path:url(#clippath);}</style><clipPath id="clippath"><rect class="cls-2" x=".45" y=".45" width="184.11" height="146.14"/></clipPath></defs><g id="Layer_1-2"><g><g class="cls-4"><path class="cls-1" d="m54.4,22.73c14.45-14.45,36.36-17.73,56.82-10.57,2.44.85,4.86,1.86,7.24,3.01,2.1,1.01,4.18,2.14,6.22,3.39,1.87,1.14,3.71,2.38,5.51,3.72,2.94,2.18,5.77,4.61,8.45,7.3,2.62,2.62,5.01,5.38,7.14,8.24,1.34,1.79,2.58,3.62,3.73,5.49,1.25,2.02,2.38,4.09,3.4,6.19,1.2,2.47,2.25,4.98,3.14,7.51,7.16,20.45,3.88,42.36-10.56,56.81-2.07,2.07-4.3,3.91-6.65,5.53-6.28,4.31-13.47,7-21.06,8.11-6.95,1.02-14.23.71-21.46-.89-7.37-1.63-14.7-4.6-21.58-8.86-4.76-2.96-9.3-6.53-13.49-10.73-4.25-4.25-7.87-8.86-10.85-13.7-4.25-6.89-7.19-14.22-8.79-21.6-1.57-7.23-1.85-14.5-.81-21.43,1.14-7.58,3.85-14.74,8.18-21,1.59-2.3,3.4-4.48,5.43-6.51Z"/><path class="cls-1" d="m54.4,22.73c14.45-14.45,36.36-17.73,56.82-10.57,2.44.85,4.86,1.86,7.24,3.01,2.1,1.01,4.18,2.14,6.22,3.39,1.87,1.14,3.71,2.38,5.51,3.72,2.94,2.18,5.77,4.61,8.45,7.3,2.62,2.62,5.01,5.38,7.14,8.24,1.34,1.79,2.58,3.62,3.73,5.49,1.25,2.02,2.38,4.09,3.4,6.19,1.2,2.47,2.25,4.98,3.14,7.51,7.16,20.45,3.88,42.36-10.56,56.81-2.07,2.07-4.3,3.91-6.65,5.53-6.28,4.31-13.47,7-21.06,8.11-6.95,1.02-14.23.71-21.46-.89-7.37-1.63-14.7-4.6-21.58-8.86-4.76-2.96-9.3-6.53-13.49-10.73-4.25-4.25-7.87-8.86-10.85-13.7-4.25-6.89-7.19-14.22-8.79-21.6-1.57-7.23-1.85-14.5-.81-21.43,1.14-7.58,3.85-14.74,8.18-21,1.59-2.3,3.4-4.48,5.43-6.51Z"/><path class="cls-1" d="m-16.55,45.5h0c-.59,14.5,1.77,29.61,6.99,44.4,9.07-2.15,18.33-5.03,27.74-8.52-3.19-10.34-4.45-20.83-3.74-30.86.77-10.79,3.82-21.05,9.24-30.03C13.63,14.76,5.14,6.88-1.88-1.82c-9.13,13.86-13.97,30.16-14.67,47.31Z"/><path class="cls-1" d="m8.85-14.99c36.61-36.61,100.45-33.11,147.93,6.15,1.25,1.03,2.48,2.08,3.71,3.17,1.1.96,2.17,1.95,3.24,2.95,1.24,1.15,2.46,2.33,3.66,3.54s2.27,2.3,3.37,3.48c1,1.07,1.99,2.15,2.96,3.24,1.08,1.22,2.14,2.46,3.17,3.7,39.41,47.5,42.97,111.47,6.31,148.13-39.42,39.42-110.4,32.34-158.55-15.81C8.64,127.53-2.83,108.97-9.56,89.9c9.07-2.15,18.33-5.03,27.74-8.52,2.67,8.69,6.69,17.27,12.02,25.4,3.96,6.03,8.63,11.81,14.02,17.2,5.33,5.33,11.04,9.96,17,13.89,8.12,5.36,16.71,9.4,25.39,12.09,10.36,3.22,20.87,4.51,30.91,3.82,10.83-.74,21.13-3.79,30.14-9.22,4.18-2.52,8.09-5.55,11.64-9.1,24.68-24.68,24.25-66.41,1.23-99.84-1.06-1.54-2.16-3.06-3.32-4.56-1.16-1.52-2.39-3.02-3.65-4.5-1.81-2.11-3.72-4.17-5.73-6.18s-4.2-4.03-6.38-5.9c-1.48-1.27-2.98-2.48-4.51-3.65-1.51-1.15-3.03-2.25-4.57-3.31-33.39-22.87-75-23.24-99.62,1.38-3.54,3.54-6.56,7.42-9.07,11.59C13.63,14.76,5.14,6.88-1.88-1.82h0C1.2-6.51,4.78-10.92,8.85-14.99Z"/><path class="cls-1" d="m32.75,8.9c24.62-24.62,66.23-24.25,99.62-1.38,1.55,1.05,3.07,2.16,4.57,3.31,1.52,1.17,3.03,2.39,4.51,3.65,2.18,1.86,4.31,3.82,6.38,5.9s3.92,4.07,5.73,6.18c1.26,1.48,2.48,2.97,3.65,4.5,1.16,1.5,2.27,3.02,3.32,4.56,23.02,33.43,23.45,75.16-1.23,99.84-3.55,3.55-7.46,6.59-11.64,9.1-4.32-7.51-7.44-15.91-8.83-25.23,2.35-1.61,4.58-3.45,6.65-5.53,14.45-14.45,17.73-36.36,10.56-56.81-.89-2.53-1.93-5.04-3.14-7.51-1.02-2.1-2.15-4.16-3.4-6.19-1.15-1.86-2.39-3.69-3.73-5.49-2.14-2.86-4.52-5.62-7.14-8.24-2.68-2.68-5.51-5.12-8.45-7.3-1.8-1.34-3.64-2.58-5.51-3.72-2.04-1.25-4.11-2.37-6.22-3.39-2.38-1.15-4.8-2.16-7.24-3.01-20.45-7.16-42.37-3.88-56.82,10.57-2.03,2.03-3.84,4.21-5.43,6.51-9.34-1.35-17.75-4.45-25.29-8.75,2.51-4.16,5.53-8.05,9.07-11.59Z"/><path class="cls-1" d="m54.4,22.73c14.45-14.45,36.36-17.73,56.82-10.57,2.44.85,4.86,1.86,7.24,3.01,2.1,1.01,4.18,2.14,6.22,3.39,1.87,1.14,3.71,2.38,5.51,3.72,2.94,2.18,5.77,4.61,8.45,7.3,2.62,2.62,5.01,5.38,7.14,8.24,1.34,1.79,2.58,3.62,3.73,5.49,1.25,2.02,2.38,4.09,3.4,6.19,1.2,2.47,2.25,4.98,3.14,7.51,7.16,20.45,3.88,42.36-10.56,56.81-2.07,2.07-4.3,3.91-6.65,5.53-6.28,4.31-13.47,7-21.06,8.11-6.95,1.02-14.23.71-21.46-.89-7.37-1.63-14.7-4.6-21.58-8.86-4.76-2.96-9.3-6.53-13.49-10.73-4.25-4.25-7.87-8.86-10.85-13.7-4.25-6.89-7.19-14.22-8.79-21.6-1.57-7.23-1.85-14.5-.81-21.43,1.14-7.58,3.85-14.74,8.18-21,1.59-2.3,3.4-4.48,5.43-6.51Z"/><path class="cls-3" d="m114.24,105.36c-3.24,0-6.51-.34-9.8-1.02-5.92-1.22-11.62-3.49-16.95-6.75-3.8-2.33-7.34-5.12-10.53-8.31-3.24-3.24-6.07-6.84-8.41-10.69-3.24-5.33-5.49-11.04-6.69-16.97-1.16-5.73-1.29-11.44-.39-16.95,1.02-6.18,3.28-11.81,6.73-16.75.06-.09.15-.22.26-.38,7.89-11.69,17.91-18.52,28.21-19.22.29-.02.54.2.56.49.02.29-.2.54-.49.56-9.97.68-19.71,7.34-27.42,18.76-.11.17-.2.3-.27.39-3.36,4.8-5.57,10.29-6.56,16.31-.88,5.39-.76,10.96.38,16.57,1.17,5.81,3.38,11.4,6.56,16.63,2.29,3.78,5.07,7.31,8.25,10.49,3.13,3.13,6.61,5.88,10.33,8.16,5.22,3.19,10.81,5.42,16.61,6.62,5.62,1.16,11.2,1.31,16.59.44,6.03-.97,11.53-3.15,16.36-6.5.16-.11.41-.27.76-.48,15.23-9.37,19.21-21.25,19.86-29.56.02-.29.27-.5.56-.48.29.02.5.28.48.56-.62,7.96-3.75,15.14-9.29,21.34-4.42,4.94-9.07,7.81-11.06,9.03-.32.2-.57.35-.71.45-4.96,3.44-10.61,5.69-16.79,6.68-2.36.38-4.76.57-7.17.57Z"/><path class="cls-1" d="m94.23,19.76c4.56-4.56,10.52-7.06,16.99-7.6,2.44.85,4.86,1.86,7.24,3.01,2.1,1.01,4.18,2.14,6.22,3.39,1.87,1.14,3.71,2.38,5.51,3.72,2.94,2.18,5.77,4.61,8.45,7.3,2.62,2.62,5.01,5.38,7.14,8.24,1.34,1.79,2.58,3.62,3.73,5.49,1.25,2.02,2.38,4.09,3.4,6.19,1.2,2.47,2.25,4.98,3.14,7.51-.54,6.46-3.04,12.42-7.59,16.98-2.03,2.03-4.35,3.66-6.86,4.88-3.62,1.76-7.65,2.69-11.85,2.81-3.17.09-6.44-.27-9.7-1.08-4.48-1.12-8.95-3.07-13.15-5.84-2.59-1.71-5.07-3.72-7.39-6.04-2.38-2.38-4.44-4.93-6.17-7.6-2.75-4.21-4.68-8.7-5.76-13.18-.79-3.27-1.13-6.54-1.02-9.71.16-4.21,1.12-8.24,2.93-11.85,1.2-2.42,2.79-4.64,4.76-6.61Z"/><g><g><path class="cls-3" d="m61.49,30.57c-2.03,0-4.07-.06-6.12-.17-2.14-.12-4.31-.33-6.48-.64-.29-.04-.49-.31-.44-.59.04-.29.3-.49.59-.44,2.13.31,4.28.52,6.38.63,11.47.63,22.57-.51,33.91-3.49,9.35-2.45,18.79-6.1,28.88-11.16.26-.13.57-.03.7.23.13.26.03.57-.23.7-10.16,5.09-19.67,8.77-29.09,11.24-9.43,2.47-18.68,3.69-28.12,3.69Z"/><path class="cls-3" d="m26.21,51.54c-3.9,0-7.83-.17-11.81-.5-10.17-.84-18.99-2.61-26.77-4.17-1.46-.29-2.88-.58-4.27-.85-.11-.02-.21-.08-.28-.16-.2-.21-.19-.54.02-.74.14-.13.33-.17.5-.12,1.38.27,2.79.55,4.24.84,7.75,1.56,16.54,3.33,26.65,4.16,8.9.74,17.48.65,26.25-.28,14.85-1.57,29.77-5.49,45.61-11.98,10.89-4.46,22.25-10.19,33.77-17.04,1.65-.98,3.02-1.81,4.29-2.58.25-.15.57-.07.72.17.15.25.07.57-.17.72-1.28.78-2.64,1.6-4.3,2.59-11.56,6.88-22.97,12.63-33.91,17.11-15.93,6.53-30.95,10.47-45.9,12.05-4.91.52-9.76.78-14.64.78Z"/><path class="cls-3" d="m18.18,81.9c-.21,0-.41-.13-.49-.34-.1-.27.04-.57.31-.67,7.45-2.76,15.32-6.02,23.39-9.7,13.93-6.35,28.95-14.1,45.91-23.71,9.29-5.26,19.37-11.2,30.81-18.15,3.9-2.36,7.86-4.88,11.78-7.49.24-.16.57-.09.73.15.16.24.09.57-.15.73-3.93,2.61-7.91,5.14-11.81,7.51-11.46,6.95-21.54,12.9-30.84,18.16-16.99,9.63-32.04,17.39-46,23.75-8.09,3.69-15.98,6.96-23.46,9.73-.06.02-.12.03-.18.03Z"/><path class="cls-3" d="m6.4,121.96c-.18,0-.36-.09-.45-.26-.15-.25-.06-.57.19-.72,43.57-25.56,87.84-58.63,128.02-95.64.21-.2.54-.18.74.03.2.21.18.54-.03.74C94.64,63.18,50.31,96.29,6.67,121.89c-.08.05-.17.07-.26.07Z"/></g><g><path class="cls-3" d="m138.84,119.86c-.26,0-.48-.19-.52-.45-.33-2.23-.56-4.5-.68-6.75-.63-11.49.5-22.59,3.45-33.94,2.47-9.53,6.19-19.17,11.36-29.48.13-.26.44-.36.7-.23.26.13.36.45.23.7-5.14,10.24-8.83,19.81-11.28,29.27-2.92,11.24-4.04,22.24-3.42,33.61.12,2.22.35,4.46.67,6.65.04.29-.16.55-.44.6-.03,0-.05,0-.08,0Z"/><path class="cls-3" d="m169.86,170.45c-.12,0-.23-.04-.33-.12-9.49-7.66-16.99-16.24-22.31-25.5-.14-.25-.06-.57.19-.72.25-.14.57-.06.72.19,5.25,9.15,12.68,17.63,22.06,25.21.23.18.26.51.08.74-.1.13-.26.19-.41.19Z"/><path class="cls-3" d="m122.54,185.11c-.25,0-.47-.17-.51-.42-.27-1.37-.55-2.77-.84-4.21-1.56-7.75-3.33-16.53-4.17-26.65-.76-8.96-.68-17.6.25-26.43,1.57-14.96,5.49-29.98,12-45.92,4.48-10.98,10.26-22.44,17.19-34.09.71-1.2,1.66-2.78,2.62-4.36.15-.25.47-.33.72-.17.25.15.32.47.17.72-.96,1.58-1.9,3.15-2.62,4.35-6.9,11.6-12.66,23.02-17.12,33.95-6.47,15.85-10.37,30.77-11.93,45.63-.92,8.76-1,17.34-.24,26.24.84,10.06,2.6,18.81,4.16,26.53.29,1.44.57,2.85.84,4.22.06.28-.13.56-.41.62-.03,0-.07,0-.1,0Z"/><path class="cls-3" d="m78.13,178.17s-.08,0-.12-.01c-.28-.07-.46-.35-.39-.63,2.07-8.75,4.93-18.09,8.51-27.75,2.75-7.43,6.01-15.32,9.71-23.44,6.35-13.95,14.11-29,23.74-46.01,5.32-9.4,11.28-19.52,18.23-30.96,2.38-3.92,4.92-7.91,7.54-11.85.16-.24.49-.31.73-.15.24.16.31.49.15.73-2.61,3.93-5.14,7.9-7.51,11.81-6.94,11.43-12.9,21.54-18.21,30.93-9.61,16.98-17.37,32-23.7,45.92-3.69,8.1-6.94,15.97-9.68,23.37-3.56,9.62-6.41,18.91-8.47,27.62-.06.24-.27.4-.51.4Z"/><path class="cls-3" d="m46.6,162.16c-.09,0-.18-.02-.26-.07-.25-.15-.33-.47-.19-.72,25.28-43.1,58.45-87.38,95.91-128.06.2-.21.53-.23.74-.03.21.2.23.53.03.74-37.41,40.62-70.54,84.84-95.78,127.88-.1.17-.27.26-.45.26Z"/></g></g><path class="cls-3" d="m25.31,143.33c-.13,0-.27-.05-.37-.15-.2-.2-.2-.54,0-.74L166.77.6c.2-.2.54-.2.74,0,.2.2.2.54,0,.74L25.68,143.17c-.1.1-.24.15-.37.15Z"/><g><g><path class="cls-3" d="m83.23,18.49c-.91,0-1.82-.02-2.71-.05-9.93-.36-18.57-2.68-25.69-6.9-12.92-7.67-21.96-21.9-26.14-41.15-.06-.28.12-.56.4-.62.28-.06.56.12.62.4C33.83-10.88,42.7,3.12,55.36,10.63c14.14,8.39,35.11,9.01,57.52,1.7.28-.09.57.06.66.34.09.28-.06.57-.34.66-10.5,3.43-20.57,5.16-29.98,5.16Z"/><path class="cls-3" d="m99.13,13.01c-9.82,0-19.84-2.29-25.12-10.2-3.35-5.01-5.43-11.13-6.2-18.18-.81-7.41-.16-15.88,1.93-25.18.06-.28.35-.46.63-.4.28.06.46.34.4.63-4,17.8-2.58,32.51,4.11,42.54,6.97,10.45,22.82,10.63,34.88,8.94.28-.04.55.16.59.45.04.29-.16.55-.45.59-3.39.47-7.07.8-10.78.8Z"/><path class="cls-3" d="m113.04,13.35c-.11,0-.23-.04-.32-.11-8.95-7.08-12.36-17.2-13.66-24.44-1.58-8.87-.79-18.54,2.13-25.87.11-.27.41-.4.68-.29.27.11.4.41.29.68-5.85,14.72-3.24,37.68,11.2,49.1.23.18.27.51.09.74-.1.13-.26.2-.41.2Z"/><path class="cls-3" d="m123.37,18.31c-.27,0-.5-.21-.52-.48-1.1-12.55,2.33-27.36,9.91-42.81.13-.26.44-.37.7-.24.26.13.37.44.24.7-7.5,15.28-10.9,29.89-9.81,42.26.03.29-.19.54-.48.57-.02,0-.03,0-.05,0Z"/><path class="cls-3" d="m132.62,24.46c-.07,0-.14-.01-.2-.04-.27-.11-.39-.42-.28-.69,4.8-11.3,12.67-23.59,22.17-34.61.19-.22.52-.24.74-.06.22.19.24.52.06.74-9.43,10.94-17.24,23.14-21.99,34.34-.08.2-.28.32-.48.32Z"/></g><g><path class="cls-3" d="m197.75,139.35s-.07,0-.11-.01c-19.25-4.18-33.48-13.22-41.15-26.14-4.22-7.11-6.55-15.76-6.9-25.69-.37-10.17,1.35-21.17,5.11-32.69.09-.28.39-.43.66-.34.28.09.43.39.34.66-7.31,22.41-6.7,43.37,1.7,57.52,7.52,12.67,21.51,21.54,40.47,25.65.28.06.46.34.4.62-.05.25-.27.41-.51.41Z"/><path class="cls-3" d="m189.79,100.55c-2.21,0-4.35-.11-6.4-.34-7.05-.77-13.17-2.85-18.18-6.2-10.9-7.27-11.13-23.54-9.4-35.9.04-.29.31-.49.59-.45.29.04.49.31.45.59-1.68,12.07-1.5,27.91,8.95,34.88,10.03,6.7,24.74,8.12,42.54,4.11.28-.06.56.11.63.4.06.28-.11.56-.4.63-6.72,1.51-13,2.27-18.77,2.27Z"/><path class="cls-3" d="m188.4,69.76c-3.07,0-6.17-.26-9.17-.8-7.25-1.29-17.37-4.71-24.44-13.66-.18-.23-.14-.56.09-.74.23-.18.56-.14.74.09,11.42,14.44,34.38,17.06,49.1,11.2.27-.11.57.02.68.29.11.27-.02.57-.29.68-4.84,1.93-10.71,2.93-16.7,2.93Z"/><path class="cls-3" d="m155.06,45.47c-1.6,0-3.18-.07-4.72-.2-.29-.03-.5-.28-.48-.57.03-.29.28-.5.57-.48,12.35,1.08,26.52-2.25,42.12-9.91.26-.13.57-.02.7.24.13.26.02.57-.24.7-13.82,6.79-26.56,10.21-37.95,10.21Z"/><path class="cls-3" d="m144.09,35.93c-.2,0-.4-.12-.48-.32-.11-.27.01-.57.28-.69,11.2-4.76,23.39-12.57,34.34-21.99.22-.19.55-.16.74.05.19.22.16.55-.06.74-11.02,9.5-23.31,17.37-34.61,22.17-.07.03-.14.04-.2.04Z"/></g></g></g><rect class="cls-2" x=".45" y=".45" width="184.11" height="146.14"/></g></g></svg>